<svg viewBox="0 0 16 16" fill="currentColor" xmlns="http://www.w3.org/2000/svg">
<g clip-path="url(#clip0_15_4163)">
<mask id="path-1-inside-1_15_4163" fill="white">
<path fill-rule="evenodd" clip-rule="evenodd" d="M15 5.30002L8.29995 0.100024C8.09995 2.44156e-05 7.89995 2.44156e-05 7.69995 0.100024L0.999951 5.30002C0.799951 5.40002 0.699951 5.60002 0.699951 5.80002V14C0.699951 14.5 0.899951 15.1 1.29995 15.4C1.69995 15.8 2.19995 16 2.79995 16H13.3C13.8 16 14.4 15.8 14.7 15.4C15.1 15 15.3 14.5 15.3 14V5.80002C15.3 5.60002 15.2 5.40002 15 5.30002ZM9.69995 14.9H6.29995V8.50002H9.69995V14.9ZM14.2 14C14.2 14.3 14.1 14.5 13.9 14.7C13.7 14.9 13.5 15 13.2 15H10.7V8.00002C10.7 7.70002 10.5 7.50002 10.2 7.50002H5.79995C5.49995 7.50002 5.19995 7.70002 5.19995 8.00002V14.9H2.79995C2.49995 14.9 2.29995 14.8 2.09995 14.6C1.89995 14.4 1.79995 14.2 1.79995 13.9V6.00002L7.99995 1.20002L14.2 6.00002V14Z"/>
</mask>
<path fill-rule="evenodd" clip-rule="evenodd" d="M15 5.30002L8.29995 0.100024C8.09995 2.44156e-05 7.89995 2.44156e-05 7.69995 0.100024L0.999951 5.30002C0.799951 5.40002 0.699951 5.60002 0.699951 5.80002V14C0.699951 14.5 0.899951 15.1 1.29995 15.4C1.69995 15.8 2.19995 16 2.79995 16H13.3C13.8 16 14.4 15.8 14.7 15.4C15.1 15 15.3 14.5 15.3 14V5.80002C15.3 5.60002 15.2 5.40002 15 5.30002ZM9.69995 14.9H6.29995V8.50002H9.69995V14.9ZM14.2 14C14.2 14.3 14.1 14.5 13.9 14.7C13.7 14.9 13.5 15 13.2 15H10.7V8.00002C10.7 7.70002 10.5 7.50002 10.2 7.50002H5.79995C5.49995 7.50002 5.19995 7.70002 5.19995 8.00002V14.9H2.79995C2.49995 14.9 2.29995 14.8 2.09995 14.6C1.89995 14.4 1.79995 14.2 1.79995 13.9V6.00002L7.99995 1.20002L14.2 6.00002V14Z" fill="#E7833D"/>
<path d="M15 5.30002L14.0803 6.485L14.197 6.57559L14.3291 6.64167L15 5.30002ZM8.29995 0.100024L9.21964 -1.08496L9.10292 -1.17554L8.97077 -1.24162L8.29995 0.100024ZM7.69995 0.100024L7.02913 -1.24162L6.89698 -1.17554L6.78027 -1.08496L7.69995 0.100024ZM0.999951 5.30002L1.67077 6.64167L1.80292 6.57559L1.91964 6.485L0.999951 5.30002ZM1.29995 15.4L2.36061 14.3394L2.28523 14.264L2.19995 14.2L1.29995 15.4ZM14.7 15.4L13.6393 14.3394L13.5639 14.4147L13.5 14.5L14.7 15.4ZM9.69995 14.9V16.4H11.2V14.9H9.69995ZM6.29995 14.9H4.79995V16.4H6.29995V14.9ZM6.29995 8.50002V7.00002H4.79995V8.50002H6.29995ZM9.69995 8.50002H11.2V7.00002H9.69995V8.50002ZM10.7 15H9.19995V16.5H10.7V15ZM5.19995 14.9V16.4H6.69995V14.9H5.19995ZM1.79995 6.00002L0.881691 4.81394L0.299951 5.26432V6.00002H1.79995ZM7.99995 1.20002L8.91821 0.0139389L7.99995 -0.696972L7.08169 0.0139389L7.99995 1.20002ZM14.2 6.00002H15.7V5.26432L15.1182 4.81394L14.2 6.00002ZM15.9196 4.11504L9.21964 -1.08496L7.38027 1.285L14.0803 6.485L15.9196 4.11504ZM8.97077 -1.24162C8.34848 -1.55276 7.65142 -1.55276 7.02913 -1.24162L8.37077 1.44167C8.28734 1.48338 8.1591 1.52502 7.99995 1.52502C7.84081 1.52502 7.71256 1.48338 7.62913 1.44167L8.97077 -1.24162ZM6.78027 -1.08496L0.0802652 4.11504L1.91964 6.485L8.61964 1.285L6.78027 -1.08496ZM0.329131 3.95838C-0.449414 4.34766 -0.800049 5.11505 -0.800049 5.80002H2.19995C2.19995 6.085 2.04932 6.45239 1.67077 6.64167L0.329131 3.95838ZM-0.800049 5.80002V14H2.19995V5.80002H-0.800049ZM-0.800049 14C-0.800049 14.771 -0.513955 15.9146 0.399951 16.6L2.19995 14.2C2.24345 14.2326 2.26169 14.2583 2.2629 14.26C2.26407 14.2617 2.25502 14.2488 2.24267 14.2179C2.23052 14.1876 2.21906 14.1494 2.21096 14.1069C2.20283 14.0642 2.19995 14.0269 2.19995 14H-0.800049ZM0.239291 16.4607C0.938984 17.1604 1.82891 17.5 2.79995 17.5V14.5C2.57099 14.5 2.46092 14.4397 2.36061 14.3394L0.239291 16.4607ZM2.79995 17.5H13.3V14.5H2.79995V17.5ZM13.3 17.5C14.0709 17.5 15.2145 17.2139 15.9 16.3L13.5 14.5C13.5326 14.4565 13.5582 14.4383 13.5599 14.4371C13.5616 14.4359 13.5488 14.445 13.5179 14.4573C13.4875 14.4695 13.4493 14.4809 13.4068 14.489C13.3641 14.4971 13.3268 14.5 13.3 14.5V17.5ZM15.7606 16.4607C16.4329 15.7884 16.8 14.9104 16.8 14H13.8C13.8 14.0897 13.767 14.2117 13.6393 14.3394L15.7606 16.4607ZM16.8 14V5.80002H13.8V14H16.8ZM16.8 5.80002C16.8 5.11505 16.4493 4.34766 15.6708 3.95838L14.3291 6.64167C13.9506 6.45239 13.8 6.085 13.8 5.80002H16.8ZM9.69995 13.4H6.29995V16.4H9.69995V13.4ZM7.79995 14.9V8.50002H4.79995V14.9H7.79995ZM6.29995 10H9.69995V7.00002H6.29995V10ZM8.19995 8.50002V14.9H11.2V8.50002H8.19995ZM12.7 14C12.7 13.975 12.7059 13.8871 12.7542 13.7783C12.7997 13.6761 12.8507 13.6279 12.8393 13.6394L14.9606 15.7607C15.1492 15.5721 15.3502 15.324 15.4957 14.9967C15.644 14.663 15.7 14.3251 15.7 14H12.7ZM12.8393 13.6394C12.8278 13.6508 12.876 13.5998 12.9782 13.5543C13.087 13.506 13.1749 13.5 13.2 13.5V16.5C13.525 16.5 13.8629 16.4441 14.1967 16.2957C14.5239 16.1503 14.7721 15.9492 14.9606 15.7607L12.8393 13.6394ZM13.2 13.5H10.7V16.5H13.2V13.5ZM12.2 15V8.00002H9.19995V15H12.2ZM12.2 8.00002C12.2 7.50915 12.0298 6.98353 11.6231 6.57686C11.2164 6.1702 10.6908 6.00002 10.2 6.00002V9.00002C10.0091 9.00002 9.73346 8.92985 9.50179 8.69818C9.27012 8.46652 9.19995 8.1909 9.19995 8.00002H12.2ZM10.2 6.00002H5.79995V9.00002H10.2V6.00002ZM5.79995 6.00002C5.33517 6.00002 4.85679 6.14997 4.46654 6.4535C4.06004 6.76966 3.69995 7.30366 3.69995 8.00002H6.69995C6.69995 8.39639 6.48986 8.68038 6.30836 8.82155C6.14311 8.95008 5.96473 9.00002 5.79995 9.00002V6.00002ZM3.69995 8.00002V14.9H6.69995V8.00002H3.69995ZM5.19995 13.4H2.79995V16.4H5.19995V13.4ZM2.79995 13.4C2.82498 13.4 2.91289 13.406 3.02166 13.4543C3.1239 13.4998 3.17206 13.5508 3.16061 13.5394L1.03929 15.6607C1.22784 15.8492 1.476 16.0503 1.80325 16.1957C2.13701 16.3441 2.47492 16.4 2.79995 16.4V13.4ZM3.16061 13.5394C3.14916 13.5279 3.20023 13.5761 3.24567 13.6783C3.29401 13.7871 3.29995 13.875 3.29995 13.9H0.299951C0.299951 14.2251 0.355894 14.563 0.504233 14.8967C0.649676 15.224 0.850739 15.4721 1.03929 15.6607L3.16061 13.5394ZM3.29995 13.9V6.00002H0.299951V13.9H3.29995ZM2.71821 7.18611L8.91821 2.38611L7.08169 0.0139389L0.881691 4.81394L2.71821 7.18611ZM7.08169 2.38611L13.2817 7.18611L15.1182 4.81394L8.91821 0.0139389L7.08169 2.38611ZM12.7 6.00002V14H15.7V6.00002H12.7Z" fill="#E7833D" mask="url(#path-1-inside-1_15_4163)"/>
</g>
<defs>
<clipPath id="clip0_15_4163">
<rect width="16" height="16" fill="white"/>
</clipPath>
</defs>
</svg>
